<?xml version="1.0" encoding="utf-8"?>
<!-- Generator: Adobe Illustrator 18.0.0, SVG Export Plug-In . SVG Version: 6.00 Build 0)  -->
<!DOCTYPE svg PUBLIC "-//W3C//DTD SVG 1.1//EN" "http://www.w3.org/Graphics/SVG/1.1/DTD/svg11.dtd" [
	<!ENTITY ns_extend "http://ns.adobe.com/Extensibility/1.0/">
	<!ENTITY ns_ai "http://ns.adobe.com/AdobeIllustrator/10.0/">
	<!ENTITY ns_graphs "http://ns.adobe.com/Graphs/1.0/">
	<!ENTITY ns_vars "http://ns.adobe.com/Variables/1.0/">
	<!ENTITY ns_imrep "http://ns.adobe.com/ImageReplacement/1.0/">
	<!ENTITY ns_sfw "http://ns.adobe.com/SaveForWeb/1.0/">
	<!ENTITY ns_custom "http://ns.adobe.com/GenericCustomNamespace/1.0/">
	<!ENTITY ns_adobe_xpath "http://ns.adobe.com/XPath/1.0/">
]>
<svg version="1.1" id="Layer_1" xmlns:x="&ns_extend;" xmlns:i="&ns_ai;" xmlns:graph="&ns_graphs;"
	 xmlns="http://www.w3.org/2000/svg" xmlns:xlink="http://www.w3.org/1999/xlink" x="0px" y="0px" viewBox="0 0 594 260"
	 enable-background="new 0 0 594 260" xml:space="preserve">
<metadata>
	<sfw  xmlns="&ns_sfw;">
		<slices></slices>
		<sliceSourceBounds  height="259" width="16383" x="-7687" y="-332" bottomLeftOrigin="true"></sliceSourceBounds>
	</sfw>
</metadata>
<rect x="261" y="4" fill="#FFFFFF" stroke="#000000" stroke-width="2" stroke-miterlimit="10" width="116" height="38"/>
<rect x="5" y="76" fill="#FFFFFF" stroke="#000000" stroke-width="2" stroke-miterlimit="10" width="116" height="38"/>
<rect x="163" y="75" fill="#FFFFFF" stroke="#000000" stroke-width="2" stroke-miterlimit="10" width="116" height="38"/>
<rect x="472" y="75" fill="#FFFFFF" stroke="#000000" stroke-width="2" stroke-miterlimit="10" width="116" height="38"/>
<rect x="319" y="75" fill="#FFFFFF" stroke="#000000" stroke-width="2" stroke-miterlimit="10" width="116" height="38"/>
<rect x="261" y="148" fill="#FFFFFF" stroke="#000000" stroke-width="2" stroke-miterlimit="10" width="116" height="38"/>
<rect x="414" y="148" fill="#FFFFFF" stroke="#000000" stroke-width="2" stroke-miterlimit="10" width="116" height="38"/>
<rect x="261" y="217" fill="#FFFFFF" stroke="#000000" stroke-width="2" stroke-miterlimit="10" width="116" height="38"/>
<text transform="matrix(1 0 0 1 51 101)" font-family="'MyriadPro-Regular'" font-size="18">bin</text>
<text transform="matrix(1 0 0 1 315 28.6001)" font-family="'MyriadPro-Regular'" font-size="18">/</text>
<line fill="none" stroke="#000000" stroke-width="2" stroke-miterlimit="10" x1="319" y1="42" x2="63" y2="75"/>
<line fill="none" stroke="#000000" stroke-width="2" stroke-miterlimit="10" x1="319" y1="42" x2="221" y2="75"/>
<line fill="none" stroke="#000000" stroke-width="2" stroke-miterlimit="10" x1="319" y1="42" x2="377" y2="75"/>
<line fill="none" stroke="#000000" stroke-width="2" stroke-miterlimit="10" x1="319" y1="42" x2="530" y2="75"/>
<line fill="none" stroke="#000000" stroke-width="2" stroke-miterlimit="10" x1="377" y1="113" x2="319" y2="148"/>
<line fill="none" stroke="#000000" stroke-width="2" stroke-miterlimit="10" x1="377" y1="113" x2="472" y2="148"/>
<line fill="none" stroke="#000000" stroke-width="2" stroke-miterlimit="10" x1="319" y1="186" x2="319" y2="217"/>
<text transform="matrix(1 0 0 1 212 100)" font-family="'MyriadPro-Regular'" font-size="18">src</text>
<text transform="matrix(1 0 0 1 366 100)" font-family="'MyriadPro-Regular'" font-size="18">usr</text>
<text transform="matrix(1 0 0 1 515 101)" font-family="'MyriadPro-Regular'" font-size="18">tmp</text>
<text transform="matrix(1 0 0 1 301 173)" font-family="'MyriadPro-Regular'" font-size="18">flynn</text>
<text transform="matrix(1 0 0 1 448 172)" font-family="'MyriadPro-Regular'" font-size="18">quorra</text>
<text transform="matrix(1 0 0 1 294 242)" font-family="'MyriadPro-Regular'" font-size="18">photos</text>
</svg>
