<?xml version="1.0" encoding="utf-8"?>
<!-- Generator: Adobe Illustrator 18.0.0, SVG Export Plug-In . SVG Version: 6.00 Build 0)  -->
<!DOCTYPE svg PUBLIC "-//W3C//DTD SVG 1.1//EN" "http://www.w3.org/Graphics/SVG/1.1/DTD/svg11.dtd" [
	<!ENTITY ns_extend "http://ns.adobe.com/Extensibility/1.0/">
	<!ENTITY ns_ai "http://ns.adobe.com/AdobeIllustrator/10.0/">
	<!ENTITY ns_graphs "http://ns.adobe.com/Graphs/1.0/">
	<!ENTITY ns_vars "http://ns.adobe.com/Variables/1.0/">
	<!ENTITY ns_imrep "http://ns.adobe.com/ImageReplacement/1.0/">
	<!ENTITY ns_sfw "http://ns.adobe.com/SaveForWeb/1.0/">
	<!ENTITY ns_custom "http://ns.adobe.com/GenericCustomNamespace/1.0/">
	<!ENTITY ns_adobe_xpath "http://ns.adobe.com/XPath/1.0/">
]>
<svg version="1.1" id="Layer_1" xmlns:x="&ns_extend;" xmlns:i="&ns_ai;" xmlns:graph="&ns_graphs;"
	 xmlns="http://www.w3.org/2000/svg" xmlns:xlink="http://www.w3.org/1999/xlink" x="0px" y="0px" viewBox="0 0 752 281"
	 enable-background="new 0 0 752 281" xml:space="preserve">
<metadata>
	<sfw  xmlns="&ns_sfw;">
		<slices></slices>
		<sliceSourceBounds  height="259" width="733" x="111" y="-317" bottomLeftOrigin="true"></sliceSourceBounds>
	</sfw>
</metadata>
<rect x="312" y="9" fill="#FFFFFF" stroke="#000000" stroke-width="2" stroke-miterlimit="10" width="116" height="38"/>
<rect x="312" y="80" fill="#FFFFFF" stroke="#000000" stroke-width="2" stroke-miterlimit="10" width="116" height="38"/>
<rect x="8" y="228" fill="#FFFFFF" stroke="#000000" stroke-width="2" stroke-miterlimit="10" width="116" height="38"/>
<rect x="160" y="228" fill="#FFFFFF" stroke="#000000" stroke-width="2" stroke-miterlimit="10" width="116" height="38"/>
<rect x="312" y="154" fill="#FFFFFF" stroke="#000000" stroke-width="2" stroke-miterlimit="10" width="116" height="38"/>
<rect x="467" y="228" fill="#FFFFFF" stroke="#000000" stroke-width="2" stroke-miterlimit="10" width="116" height="38"/>
<rect x="623" y="228" fill="#FFFFFF" stroke="#000000" stroke-width="2" stroke-miterlimit="10" width="116" height="38"/>
<text transform="matrix(1 0 0 1 337 33)" font-family="'MyriadPro-Regular'" font-size="14">Entrance (/)</text>
<rect x="312" y="228" fill="#FFFFFF" stroke="#000000" stroke-width="2" stroke-miterlimit="10" width="116" height="38"/>
<text transform="matrix(1 0 0 1 337 104)" font-family="'MyriadPro-Regular'" font-size="14">Main Street</text>
<text transform="matrix(1 0 0 1 356 178)" font-family="'MyriadPro-Regular'" font-size="14">Hub</text>
<text transform="matrix(1 0 0 1 22 252)" font-family="'MyriadPro-Regular'" font-size="14">Adventureland</text>
<text transform="matrix(1 0 0 1 182 252)" font-family="'MyriadPro-Regular'" font-size="14">Frontierland</text>
<text transform="matrix(1 0 0 1 328 252)" font-family="'MyriadPro-Regular'" font-size="14">Liberty Square</text>
<text transform="matrix(1 0 0 1 490 252)" font-family="'MyriadPro-Regular'" font-size="14">Fantasyland</text>
<text transform="matrix(1 0 0 1 639 252)" font-family="'MyriadPro-Regular'" font-size="14">Tomorrowland</text>
<line fill="none" stroke="#000000" stroke-width="2" stroke-miterlimit="10" x1="370" y1="47" x2="370" y2="80"/>
<line fill="none" stroke="#000000" stroke-width="2" stroke-miterlimit="10" x1="370" y1="118" x2="370" y2="154"/>
<line fill="none" stroke="#000000" stroke-width="2" stroke-miterlimit="10" x1="370" y1="192" x2="66" y2="228"/>
<line fill="none" stroke="#000000" stroke-width="2" stroke-miterlimit="10" x1="370" y1="192" x2="218" y2="228"/>
<line fill="none" stroke="#000000" stroke-width="2" stroke-miterlimit="10" x1="370" y1="192" x2="370" y2="228"/>
<line fill="none" stroke="#000000" stroke-width="2" stroke-miterlimit="10" x1="370" y1="192" x2="525" y2="228"/>
<line fill="none" stroke="#000000" stroke-width="2" stroke-miterlimit="10" x1="370" y1="192" x2="681" y2="228"/>
</svg>
